<svg width="102" height="31" viewBox="0 0 102 31" fill="none" xmlns="http://www.w3.org/2000/svg">
<path d="M19.5 19.08L15.98 9.46C15.8067 9.03333 15.6267 8.52667 15.44 7.94C15.2533 7.35333 15.0667 6.72 14.88 6.04C14.7067 6.72 14.5267 7.36 14.34 7.96C14.1533 8.54667 13.9733 9.06 13.8 9.5L10.3 19.08H19.5ZM29 30H24.84C24.3733 30 23.9933 29.8867 23.7 29.66C23.4067 29.42 23.1867 29.1267 23.04 28.78L20.88 22.88H8.9L6.74 28.78C6.63333 29.0867 6.42667 29.3667 6.12 29.62C5.81333 29.8733 5.43333 30 4.98 30H0.78L12.16 1.08H17.64L29 30ZM36.1744 0.279999V30H31.2344V0.279999H36.1744ZM46.2163 9.48V30H41.2563V9.48H46.2163ZM46.8963 3.5C46.8963 3.92666 46.8096 4.32666 46.6363 4.7C46.4629 5.07333 46.2296 5.4 45.9363 5.68C45.6563 5.96 45.3229 6.18667 44.9363 6.36C44.5496 6.52 44.1363 6.6 43.6963 6.6C43.2696 6.6 42.8629 6.52 42.4763 6.36C42.1029 6.18667 41.7763 5.96 41.4963 5.68C41.2163 5.4 40.9896 5.07333 40.8163 4.7C40.6563 4.32666 40.5763 3.92666 40.5763 3.5C40.5763 3.06 40.6563 2.64667 40.8163 2.26C40.9896 1.87333 41.2163 1.54 41.4963 1.26C41.7763 0.979999 42.1029 0.759999 42.4763 0.599999C42.8629 0.426666 43.2696 0.339999 43.6963 0.339999C44.1363 0.339999 44.5496 0.426666 44.9363 0.599999C45.3229 0.759999 45.6563 0.979999 45.9363 1.26C46.2296 1.54 46.4629 1.87333 46.6363 2.26C46.8096 2.64667 46.8963 3.06 46.8963 3.5ZM69.7525 9.48L61.6125 30H57.1325L48.9925 9.48H53.0725C53.4458 9.48 53.7525 9.56667 53.9925 9.74C54.2458 9.91333 54.4125 10.1333 54.4925 10.4L58.4525 21.36C58.6658 22 58.8525 22.6267 59.0125 23.24C59.1725 23.8533 59.3125 24.4667 59.4325 25.08C59.5658 24.4667 59.7125 23.8533 59.8725 23.24C60.0325 22.6267 60.2258 22 60.4525 21.36L64.4925 10.4C64.5858 10.1333 64.7525 9.91333 64.9925 9.74C65.2325 9.56667 65.5192 9.48 65.8525 9.48H69.7525ZM77.5053 9.48V30H72.5453V9.48H77.5053ZM78.1853 3.5C78.1853 3.92666 78.0986 4.32666 77.9253 4.7C77.752 5.07333 77.5186 5.4 77.2253 5.68C76.9453 5.96 76.612 6.18667 76.2253 6.36C75.8386 6.52 75.4253 6.6 74.9853 6.6C74.5586 6.6 74.152 6.52 73.7653 6.36C73.392 6.18667 73.0653 5.96 72.7853 5.68C72.5053 5.4 72.2786 5.07333 72.1053 4.7C71.9453 4.32666 71.8653 3.92666 71.8653 3.5C71.8653 3.06 71.9453 2.64667 72.1053 2.26C72.2786 1.87333 72.5053 1.54 72.7853 1.26C73.0653 0.979999 73.392 0.759999 73.7653 0.599999C74.152 0.426666 74.5586 0.339999 74.9853 0.339999C75.4253 0.339999 75.8386 0.426666 76.2253 0.599999C76.612 0.759999 76.9453 0.979999 77.2253 1.26C77.5186 1.54 77.752 1.87333 77.9253 2.26C78.0986 2.64667 78.1853 3.06 78.1853 3.5ZM91.6216 9.16C93.1416 9.16 94.5216 9.40667 95.7616 9.9C97.0149 10.3933 98.0816 11.0933 98.9616 12C99.8549 12.9067 100.542 14.0133 101.022 15.32C101.502 16.6267 101.742 18.0867 101.742 19.7C101.742 21.3267 101.502 22.7933 101.022 24.1C100.542 25.4067 99.8549 26.52 98.9616 27.44C98.0816 28.36 97.0149 29.0667 95.7616 29.56C94.5216 30.0533 93.1416 30.3 91.6216 30.3C90.0882 30.3 88.6949 30.0533 87.4416 29.56C86.1882 29.0667 85.1149 28.36 84.2216 27.44C83.3416 26.52 82.6549 25.4067 82.1616 24.1C81.6816 22.7933 81.4416 21.3267 81.4416 19.7C81.4416 18.0867 81.6816 16.6267 82.1616 15.32C82.6549 14.0133 83.3416 12.9067 84.2216 12C85.1149 11.0933 86.1882 10.3933 87.4416 9.9C88.6949 9.40667 90.0882 9.16 91.6216 9.16ZM91.6216 26.5C93.3282 26.5 94.5882 25.9267 95.4016 24.78C96.2282 23.6333 96.6416 21.9533 96.6416 19.74C96.6416 17.5267 96.2282 15.84 95.4016 14.68C94.5882 13.52 93.3282 12.94 91.6216 12.94C89.8882 12.94 88.6016 13.5267 87.7616 14.7C86.9349 15.86 86.5216 17.54 86.5216 19.74C86.5216 21.94 86.9349 23.62 87.7616 24.78C88.6016 25.9267 89.8882 26.5 91.6216 26.5Z" fill="white"/>
</svg>
